<?xml version="1.0" standalone="no"?>
<!DOCTYPE svg PUBLIC "-//W3C//DTD SVG 20010904//EN"
 "http://www.w3.org/TR/2001/REC-SVG-20010904/DTD/svg10.dtd">
<svg version="1.0" xmlns="http://www.w3.org/2000/svg"
 width="512.000000pt" height="512.000000pt" viewBox="0 0 512.000000 512.000000"
 preserveAspectRatio="xMidYMid meet">

<g transform="translate(0.000000,512.000000) scale(0.100000,-0.100000)"
fill="#000000" stroke="none">
<path d="M1890 4488 c-19 -13 -40 -35 -47 -49 -7 -13 -17 -85 -23 -159 -5 -74
-13 -159 -16 -187 l-5 -53 -122 0 c-340 -1 -655 -91 -927 -267 -695 -451 -951
-1402 -578 -2147 272 -543 824 -898 1548 -997 123 -17 498 -17 615 -1 228 32
443 88 626 163 l95 39 80 -45 c220 -126 466 -184 719 -171 338 17 629 147 871
390 194 194 306 397 365 667 34 149 34 389 0 538 -40 180 -104 331 -204 481
-64 96 -251 283 -347 347 -199 133 -419 210 -652 229 l-87 7 -37 56 c-226 342
-597 587 -1028 677 -91 19 -165 27 -298 31 l-177 6 -6 61 c-3 34 -10 119 -16
190 -11 139 -13 148 -54 186 -25 23 -35 25 -143 28 -109 3 -119 2 -152 -20z
m184 -160 c3 -13 10 -99 16 -193 13 -188 22 -230 53 -246 13 -7 76 -11 172
-10 213 3 384 -21 559 -76 53 -17 75 -28 65 -33 -8 -4 -76 -22 -152 -40 -150
-35 -191 -58 -217 -121 -13 -30 -8 -147 17 -407 l6 -63 -252 177 c-281 197
-301 205 -377 166 -21 -12 -140 -93 -264 -180 -124 -88 -226 -158 -228 -157
-2 2 5 97 14 212 10 115 14 222 10 238 -4 16 -24 45 -44 65 -34 34 -49 40
-177 70 -77 18 -146 36 -154 40 -10 5 12 16 65 33 175 56 346 79 560 76 219
-2 206 -18 224 251 16 229 13 220 60 220 33 0 40 -4 44 -22z m1861 -1229 c378
-46 723 -289 895 -629 90 -180 124 -323 124 -530 0 -157 -16 -259 -61 -385
-141 -392 -464 -673 -873 -761 -117 -25 -343 -25 -460 0 -466 100 -816 450
-916 916 -25 117 -25 343 0 460 129 605 684 1003 1291 929z"/>
<path d="M3590 2946 c-198 -42 -364 -131 -512 -274 -156 -151 -249 -323 -293
-541 -26 -126 -17 -345 19 -466 56 -189 131 -313 276 -455 148 -146 314 -234
519 -275 126 -26 345 -17 466 19 351 104 607 360 711 711 32 110 44 320 24
442 -53 329 -275 619 -584 764 -137 64 -218 81 -401 85 -109 2 -181 -1 -225
-10z m375 -161 c306 -63 549 -285 651 -595 26 -79 28 -96 28 -250 0 -154 -2
-171 -28 -250 -64 -192 -164 -331 -321 -448 -76 -56 -148 -92 -255 -128 -79
-26 -96 -28 -250 -28 -159 0 -168 1 -260 32 -139 46 -239 109 -346 216 -171
171 -254 368 -254 606 0 238 83 435 254 606 128 127 263 203 426 238 88 19
264 20 355 1z"/>
<path d="M3731 2524 c-20 -26 -21 -38 -21 -321 l0 -294 25 -24 24 -25 220 0
c216 0 220 0 247 23 37 33 37 81 0 114 -26 22 -34 23 -192 23 l-164 0 0 239
c0 226 -1 240 -21 265 -16 20 -29 26 -59 26 -30 0 -43 -6 -59 -26z"/>
</g>
</svg>
